<?xml version="1.0" encoding="UTF-8" standalone="no"?>
<!-- Created with Inkscape (http://www.inkscape.org/) -->

<svg
   xmlns:dc="http://purl.org/dc/elements/1.1/"
   xmlns:cc="http://creativecommons.org/ns#"
   xmlns:rdf="http://www.w3.org/1999/02/22-rdf-syntax-ns#"
   xmlns:svg="http://www.w3.org/2000/svg"
   xmlns="http://www.w3.org/2000/svg"
   xmlns:sodipodi="http://sodipodi.sourceforge.net/DTD/sodipodi-0.dtd"
   xmlns:inkscape="http://www.inkscape.org/namespaces/inkscape"
   width="64"
   height="64"
   class="img-responsive"
   id="svg3634"
   version="1.1"
   inkscape:version="0.91 r13725"
   viewBox="0 0 64 64"
   sodipodi:docname="news2.svg">
  <defs
     id="defs3636" />
  <sodipodi:namedview
     id="base"
     pagecolor="#ffffff"
     bordercolor="#666666"
     borderopacity="1.0"
     inkscape:pageopacity="0.0"
     inkscape:pageshadow="2"
     inkscape:zoom="5.5"
     inkscape:cx="32"
     inkscape:cy="32"
     inkscape:current-layer="layer1"
     showgrid="true"
     inkscape:document-units="px"
     inkscape:grid-bbox="true"
     inkscape:window-width="1440"
     inkscape:window-height="851"
     inkscape:window-x="0"
     inkscape:window-y="1"
     inkscape:window-maximized="1" />
  <metadata
     id="metadata3639">
    <rdf:RDF>
      <cc:Work
         rdf:about="">
        <dc:format>image/svg+xml</dc:format>
        <dc:type
           rdf:resource="http://purl.org/dc/dcmitype/StillImage" />
        <dc:title></dc:title>
      </cc:Work>
    </rdf:RDF>
  </metadata>
  <g
     id="layer1"
     inkscape:label="Layer 1"
     inkscape:groupmode="layer">
    <path
       style="fill:none;fill-rule:evenodd;stroke:#000000;stroke-width:1px;stroke-linecap:butt;stroke-linejoin:miter;stroke-opacity:1"
       d="m 5.4545455,22.727273 c 0.2197769,-0.635886 -0.1831475,-1.358984 0,-2 0.047093,-0.164825 0.253896,-0.231948 0.3636363,-0.363637 0.8076004,-0.96912 0.2673229,-0.549681 1.2727273,-1.454545 C 7.4427462,18.592437 7.8471103,18.334708 8.1818182,18 8.5769214,17.604897 8.8608348,17.104841 9.2727273,16.727273 9.5948906,16.431956 10.014007,16.262222 10.363636,16 c 0.478621,-0.358966 1.253239,-1.101456 1.818182,-1.454545 0.22984,-0.143651 0.491946,-0.229164 0.727273,-0.363637 1.023736,-0.584992 0.03649,-0.177834 1.272727,-0.727273 0.298244,-0.132552 0.606061,-0.242424 0.909091,-0.363636 0.363636,-0.121212 0.738595,-0.212644 1.090909,-0.363636 0.996495,-0.42707 1.902479,-1.051901 2.909091,-1.454546 0.409661,-0.163864 0.865448,-0.193937 1.272727,-0.363636 0.326207,-0.13592 0.580976,-0.414209 0.909091,-0.545455 0.286929,-0.114771 0.606061,-0.121212 0.909091,-0.181818 0.30303,-0.06061 0.60195,-0.147691 0.909091,-0.181818 0.240942,-0.026771 0.484849,0 0.727273,0 0.848485,0 1.69697,0 2.545454,0 0.909091,0 1.818182,0 2.727273,0 0.30303,0 0.607305,-0.027435 0.909091,0 0.367138,0.03338 0.729416,0.10952 1.090909,0.181818 1.714603,0.342921 -0.281936,-0.03337 1.454546,0.545455 0.293173,0.09772 0.615917,0.08409 0.90909,0.181818 0.25713,0.08571 0.484849,0.242424 0.727273,0.363636 3.478625,1.739313 -0.425675,-0.269217 1.636364,0.909091 0.577183,0.329819 1.223555,0.611778 1.818182,0.909091 0.121212,0.06061 0.255221,0.100507 0.363636,0.181818 0.137136,0.102852 0.226501,0.260785 0.363636,0.363637 0.108416,0.08131 0.255221,0.100506 0.363637,0.181818 0.137136,0.102852 0.242424,0.242424 0.363636,0.363636 0.242424,0.242424 0.46926,0.501511 0.727273,0.727273 0.456107,0.399094 1.025996,0.662359 1.454545,1.090909 0.214275,0.214275 0.345908,0.499219 0.545455,0.727273 0.225761,0.258013 0.521569,0.453001 0.727273,0.727272 0.162623,0.216831 0.185156,0.523296 0.363636,0.727273 0.255545,0.292051 0.634685,0.452867 0.909091,0.727273 0.214275,0.214275 0.359412,0.488075 0.545454,0.727273 0.476502,0.612645 1.009461,1.182346 1.454546,1.818181 0.202656,0.28951 0.342798,0.619582 0.545454,0.909091 0.222543,0.317918 0.527614,0.576326 0.727273,0.909091 0.167918,0.279863 0.199186,0.627177 0.363636,0.909091 0.461205,0.790636 1.08368,1.347371 1.454546,2.181818 0.101488,0.228348 0.102797,0.490211 0.181818,0.727273 0.103208,0.309625 0.260428,0.599466 0.363636,0.909091 0.158042,0.474124 0.242425,0.969697 0.363637,1.454545 0.06061,0.242425 0.156953,0.478628 0.181818,0.727273 0.03618,0.361832 0,0.727273 0,1.090909 0,0.363637 0,0.727273 0,1.090909 0,0.424243 0,0.848485 0,1.272728 0,0.424242 0.08889,0.857902 0,1.272727 -0.09671,0.451316 -0.415217,0.829921 -0.545455,1.272727 -0.616868,3.084343 -0.01954,0.604079 -0.90909,3.272727 -0.139526,0.418577 -0.249951,0.846407 -0.363637,1.272728 -0.128772,0.482895 -0.205595,0.980421 -0.363636,1.454545 -0.08571,0.25713 -0.242424,0.484849 -0.363637,0.727273 -0.121212,0.242424 -0.242424,0.484848 -0.363636,0.727273 -0.121212,0.242424 -0.206098,0.506719 -0.363636,0.727272 -0.149454,0.209235 -0.380844,0.347922 -0.545455,0.545455 -0.139892,0.16787 -0.223744,0.377584 -0.363636,0.545454 -0.164611,0.197533 -0.363637,0.363637 -0.545455,0.545455 -0.30303,0.30303 -0.562507,0.65703 -0.909091,0.909091 -0.328798,0.239126 -0.739733,0.340602 -1.090909,0.545454 -0.377503,0.22021 -0.722198,0.492639 -1.090909,0.727273 -0.922321,0.586932 -0.978856,0.580338 -2,1.090909 -0.242424,0.121212 -0.470143,0.277927 -0.727273,0.363637 -0.293173,0.09772 -0.609286,0.106867 -0.90909,0.181818 C 38.359524,49.864665 38.189046,49.968492 38,50 c -0.179344,0.02989 -0.376641,-0.06753 -0.545455,0 -0.159159,0.06366 -0.201013,0.309429 -0.363636,0.363636 -0.229984,0.07666 -0.48672,-0.03007 -0.727273,0 -0.247955,0.03099 -0.479317,0.150824 -0.727272,0.181819 -0.240553,0.03007 -0.484849,0 -0.727273,0 -0.606061,0 -1.212121,0 -1.818182,0 -0.969697,0 -1.939394,0 -2.909091,0 -0.30303,0 -0.610183,0.04982 -0.909091,0 C 28.837512,50.472919 28.431425,50.274266 28,50.181818 27.580963,50.092025 27.141352,50.110421 26.727273,50 25.676143,49.719699 24.782222,49.209293 23.818182,48.727273 22.969697,48.30303 22.079318,47.953864 21.272727,47.454545 20.797633,47.160439 20.47678,46.655002 20,46.363636 19.375137,45.981775 18.662604,45.766359 18,45.454545 17.632139,45.281434 17.279208,45.077326 16.909091,44.909091 16.661195,44.796411 15.533838,44.399411 15.272727,44.181818 15.104857,44.041926 15.076961,43.776256 14.909091,43.636364 14.700873,43.462849 14.417146,43.4072 14.181818,43.272727 13.702164,42.998639 13.370279,42.68292 12.909091,42.363636 12.370099,41.990488 11.768123,41.70207 11.272727,41.272727 10.850478,40.906778 10.576921,40.395103 10.181818,40 9.786715,39.604897 9.32254,39.284954 8.9090909,38.909091 8.4017293,38.447853 7.9393939,37.939394 7.4545455,37.454545 7.2727273,37.272727 7.0585445,37.118326 6.9090909,36.909091 6.751553,36.688538 6.6770825,36.418748 6.5454545,36.181818 6.2159402,35.588692 5.8854708,35.168223 5.6363636,34.545455 5.4940072,34.189564 5.4284027,33.804815 5.2727273,33.454545 5.1839786,33.254861 4.9858178,33.113696 4.9090909,32.909091 4.8005827,32.619736 4.8022239,32.299805 4.7272727,32 4.6202615,31.571955 4.4797287,31.152945 4.3636364,30.727273 4.2978872,30.486193 4.2695587,30.233975 4.1818182,30 4.0866502,29.746219 3.9038917,29.529857 3.8181818,29.272727 3.7204575,28.979554 3.7448718,28.652992 3.6363636,28.363636 3.5596368,28.159031 3.3418288,28.025486 3.2727273,27.818182 c -0.057496,-0.172488 0.029891,-0.36611 0,-0.545455 -0.031508,-0.189045 -0.1442319,-0.357523 -0.1818182,-0.545454 -0.035658,-0.178288 0,-0.363637 0,-0.545455 0,-0.545454 0,-1.090909 0,-1.636363 0,-0.126462 -0.032876,-0.84334 0,-0.909091 0.038331,-0.07666 0.1434875,-0.105157 0.1818182,-0.181819 0.054208,-0.108415 -0.038331,-0.248644 0,-0.363636 0.042855,-0.128565 0.1389632,-0.235071 0.1818182,-0.363636 0.1119523,-0.335857 -0.2774369,-0.0862 0.1818181,-0.545455 C 4.0125519,21.80563 3.6216581,22.756684 4,22 4.027104,21.94579 3.972896,21.87239 4,21.818182 c 0.4160552,-0.832111 -0.075359,0.77153 0.3636364,-0.545455 0.019165,-0.0575 -0.027104,-0.12761 0,-0.181818 0.3783418,-0.756684 -0.012552,0.19437 0.3636363,-0.181818 0.042855,-0.04285 -0.019165,-0.124322 0,-0.181818 0.042855,-0.128565 0.085992,-0.26781 0.1818182,-0.363637 0.042855,-0.04285 0.1212121,0 0.1818182,0 0.060606,0 0.1818182,-0.06061 0.1818182,0 0,0.06061 -0.1212121,0 -0.1818182,0 0.1212121,0 0.2779264,-0.08571 0.3636364,0 0.08571,0.08571 0,0.242425 0,0.363637"
       id="path3642"
       inkscape:connector-curvature="0" />
    <path
       style="fill:none;fill-rule:evenodd;stroke:#000000;stroke-width:1px;stroke-linecap:butt;stroke-linejoin:miter;stroke-opacity:1"
       d="m 8,32.181818 c 0.125909,-0.549509 -0.094077,-1.25372 0,-1.818182 0.063015,-0.378091 0.2884638,-0.715046 0.3636364,-1.090909 0.023772,-0.118858 -0.029398,-0.246043 0,-0.363636 0.032868,-0.131473 0.1489499,-0.232163 0.1818181,-0.363636 0.029398,-0.117593 -0.023772,-0.244779 0,-0.363637 0.037586,-0.187931 0.1353355,-0.359523 0.1818182,-0.545454 0.014699,-0.0588 -0.019165,-0.124323 0,-0.181819 0.042855,-0.128564 0.1389633,-0.235071 0.1818182,-0.363636 0.038331,-0.114992 -0.054208,-0.255221 0,-0.363636 0.038331,-0.07666 0.1212121,-0.121212 0.1818182,-0.181818 0.060606,-0.06061 0.1051569,-0.143488 0.1818182,-0.181819 0.054208,-0.0271 0.1276104,0.0271 0.1818182,0 0.076661,-0.03833 0.1051569,-0.143487 0.1818181,-0.181818 0.1084155,-0.05421 0.255221,0.05421 0.3636364,0 0.07666,-0.03833 0.105157,-0.143487 0.181818,-0.181818 0.108416,-0.05421 0.255221,0.05421 0.363637,0 0.778378,-0.389189 -0.414742,0.02555 0.363636,-0.363636 0.05421,-0.0271 0.121212,0 0.181818,0 0.06061,0 0.138963,-0.04285 0.181818,0 0.04285,0.04285 0.06061,0.181818 0,0.181818 -0.257575,0 -0.333333,-0.848485 0.181818,0.181818 0.05421,0.108415 -0.05421,0.255221 0,0.363636 0.0271,0.05421 0.138964,-0.04285 0.181819,0 0.06531,0.06531 -0.05881,0.609646 0,0.727273 0.0271,0.05421 0.138963,-0.04285 0.181818,0 0.0058,0.0058 0,0.501359 0,0.545455 0,0.60606 0,1.212121 0,1.818181 0,0.04321 0.02037,0.686522 0,0.727273 -0.03833,0.07666 -0.143488,0.105157 -0.181818,0.181818 -0.05421,0.108416 0.03833,0.248645 0,0.363637 -0.04286,0.128565 -0.138964,0.235071 -0.181819,0.363636 -0.03833,0.114992 0.08571,0.277927 0,0.363636 -0.04285,0.04285 -0.138963,-0.04285 -0.181818,0 -0.04285,0.04285 0.0271,0.127611 0,0.181819 -0.03833,0.07666 -0.143487,0.105157 -0.181818,0.181818 -0.0271,0.05421 0.06061,0.181818 0,0.181818 -0.06061,0 0,-0.121212 0,-0.181818 0,-0.181818 0,-0.363637 0,-0.545455 0,-0.484848 0,-0.969697 0,-1.454545 0,-0.121212 0,-0.242424 0,-0.363637 0,-0.181818 -0.0441,-0.369065 0,-0.545454 0.02079,-0.08315 0.143488,-0.105157 0.181818,-0.181818 0.05714,-0.114277 -0.05714,-0.612996 0,-0.727273 0.0271,-0.05421 0.138963,0.04285 0.181818,0 0.04286,-0.04285 0,-0.121212 0,-0.181818 0,-0.121212 -0.05421,-0.255221 0,-0.363637 0.0271,-0.05421 0.138964,0.04285 0.181819,0 0.04285,-0.04285 -0.04286,-0.138963 0,-0.181818 0.04285,-0.04285 0.138963,0.04285 0.181818,0 0.04285,-0.04285 -0.0271,-0.12761 0,-0.181818 0.03833,-0.07666 0.143487,-0.105157 0.181818,-0.181818 0.0271,-0.05421 -0.04285,-0.138963 0,-0.181818 0.04285,-0.04285 0.138963,0.04285 0.181818,0 0.04285,-0.04285 -0.04285,-0.138963 0,-0.181818 0.04285,-0.04285 0.138963,0.04285 0.181818,0 0.04286,-0.04285 -0.0271,-0.127611 0,-0.181819 0.03833,-0.07666 0.143488,-0.105157 0.181819,-0.181818 0.0271,-0.05421 -0.04286,-0.138963 0,-0.181818 0.04285,-0.04285 0.138963,0.04285 0.181818,0 0.04285,-0.04285 -0.03362,-0.131391 0,-0.181818 0.09509,-0.14263 0.268549,-0.221007 0.363636,-0.363637 0.03362,-0.05043 -0.0271,-0.12761 0,-0.181818 0.03833,-0.07666 0.100507,-0.154714 0.181818,-0.181818 0.114992,-0.03833 0.242425,0 0.363637,0 0.121212,0 0.248644,-0.03833 0.363636,0 0.128565,0.04285 0.235071,0.138963 0.363636,0.181818 0.0575,0.01917 0.124323,-0.01917 0.181819,0 0.128564,0.04285 0.235071,0.138963 0.363636,0.181818 0.0575,0.01917 0.124322,-0.01917 0.181818,0 0.128565,0.04285 0.235072,0.138964 0.363636,0.181819 0.0575,0.01917 0.138964,-0.04285 0.181819,0 0.09583,0.09583 0.138963,0.235071 0.181818,0.363636 0.03833,0.114992 0,0.242424 0,0.363636 0,0.242425 0,0.484849 0,0.727273 0,0.157561 0.03511,0.62195 0,0.727273 -0.04285,0.128565 -0.138963,0.235071 -0.181818,0.363636 -0.03804,0.114119 0,0.580903 0,0.727273 0,0.545454 0,1.090909 0,1.636364 0,0.07187 -0.03883,0.831439 0,0.90909 0.03833,0.07666 0.143487,0.105157 0.181818,0.181819 0.160437,0.320874 -0.385852,0.119701 0.181818,0.545454 0.34427,0.258202 0.870847,0.181818 1.272727,0.181818 0.363637,0 0.727273,0 1.090909,0 0.119474,0 0.442873,0.03419 0.545455,0 0.128565,-0.04286 0.235071,-0.138963 0.363636,-0.181818 0.335857,-0.111952 0.0862,0.277437 0.545455,-0.181818 0.04285,-0.04285 -0.04285,-0.138963 0,-0.181818 0.04285,-0.04285 0.12761,0.0271 0.181818,0 0.07666,-0.03833 0.105157,-0.143488 0.181818,-0.181818 0.05421,-0.0271 0.138963,0.04285 0.181818,0 0.08571,-0.08571 -0.05421,-0.255221 0,-0.363637 0.03833,-0.07666 0.134275,-0.110503 0.181819,-0.181818 0.07517,-0.112759 0.106645,-0.250877 0.181818,-0.363636 0.04754,-0.07132 0.143487,-0.105157 0.181818,-0.181818 0.02558,-0.05115 0,-1.133741 0,-1.272728 0,-0.30303 0,-0.60606 0,-0.909091 0,-0.121212 0.02377,-0.244778 0,-0.363636 C 20.788488,27.396985 20.739394,27.575758 20.545455,27.090909 20.266892,26.394502 20.5303,26.712118 20.181818,26.363636 20.121212,26.30303 20.081312,26.208922 20,26.181818 c -0.172488,-0.0575 -0.363636,0 -0.545455,0 -0.181818,0 -0.372966,-0.0575 -0.545454,0 -0.320821,0.10694 -0.113855,0.341566 -0.181818,0.545455 -0.04285,0.128565 -0.138963,0.235071 -0.181818,0.363636 -0.03636,0.109081 0,0.764008 0,0.909091 0,0.437028 -0.01917,-0.07666 0.181818,0.727273 0.0147,0.0588 -0.01917,0.124322 0,0.181818 0.08571,0.25713 0.277926,0.470143 0.363636,0.727273 0.01917,0.0575 0,0.121212 0,0.181818 0.06061,0.06061 0.143488,0.105157 0.181818,0.181818 0.0271,0.05421 -0.04285,0.138963 0,0.181818 0.04285,0.04285 0.138963,-0.04285 0.181818,0 0.221452,0.221452 0.08517,0.40622 0.363637,0.545455 0.05421,0.0271 0.12761,-0.0271 0.181818,0 0.07666,0.03833 0.105157,0.143487 0.181818,0.181818 0.108416,0.05421 0.248645,-0.03833 0.363637,0 0.128564,0.04285 0.235071,0.138963 0.363636,0.181818 0.0575,0.01917 0.124322,-0.01917 0.181818,0 0.128565,0.04285 0.235072,0.138963 0.363636,0.181818 0.117779,0.03926 1.256253,0 1.454546,0 0.133469,0 1.027523,0.03169 1.090909,0 0.07666,-0.03833 0.121212,-0.121212 0.181818,-0.181818 0.06061,-0.06061 0.143488,-0.105157 0.181818,-0.181818 0.0271,-0.05421 -0.0271,-0.127611 0,-0.181818 0.03833,-0.07666 0.143488,-0.105157 0.181819,-0.181818 0.0271,-0.05421 -0.0271,-0.127611 0,-0.181819 0.07666,-0.153322 0.286975,-0.210313 0.363636,-0.363636 0.0271,-0.05421 -0.0271,-0.12761 0,-0.181818 0.03833,-0.07666 0.154714,-0.100507 0.181818,-0.181818 0.03833,-0.114992 -0.03833,-0.248645 0,-0.363637 0.0271,-0.08131 0.154714,-0.100506 0.181818,-0.181818 0.03833,-0.114992 0,-0.242424 0,-0.363636 0,-0.303031 0,-0.606061 0,-0.909091 0,-0.484849 0,-0.969697 0,-1.454546 0,-0.242424 0,-0.484848 0,-0.727272 0,-0.06061 -0.06061,-0.181819 0,-0.181819 0.06061,0 0,0.121213 0,0.181819 0,0.121212 0,0.242424 0,0.363636 0,0.363636 0,0.727273 0,1.090909 0,0.181818 -0.03566,0.367167 0,0.545455 0.02658,0.132887 0.138963,0.235071 0.181818,0.363636 0.01917,0.0575 -0.01917,0.124322 0,0.181818 0.08571,0.25713 0.277927,0.470143 0.363637,0.727273 0.01917,0.0575 -0.01917,0.124322 0,0.181818 0.04285,0.128565 0.138963,0.235072 0.181818,0.363636 0.01917,0.0575 -0.01917,0.124323 0,0.181819 0.04285,0.128565 0.138963,0.235071 0.181818,0.363636 0.111953,0.335857 -0.277437,0.0862 0.181818,0.545455 0.04285,0.04285 0.127611,-0.0271 0.181819,0 0.07666,0.03833 0.121212,0.121212 0.181818,0.181818 0.181818,0 0.369065,-0.0441 0.545454,0 0.08315,0.02079 0.100507,0.154714 0.181818,0.181818 0.827689,0 0.0104,-0.08571 0.545455,0.181818 0.05421,0.0271 0.121212,0 0.181818,0 0.06061,0 0.121212,0 0.181818,0 0.303031,0 0.606061,0 0.909091,0 0.484849,0 0.969697,0 1.454546,0 0.06061,0 0.138963,0.04285 0.181818,0 0.02564,-0.02564 0.01865,-0.508158 0,-0.545454 -0.03833,-0.07666 -0.143488,-0.105157 -0.181818,-0.181819 -0.05364,-0.107276 0.04169,-0.420394 0,-0.545454 -0.04285,-0.128565 -0.131488,-0.23781 -0.181818,-0.363637 -0.142357,-0.355891 -0.258334,-0.72235 -0.363637,-1.090909 C 30.113169,28.123366 30.068649,27.876634 30,27.636364 c -0.05265,-0.184279 -0.144232,-0.357523 -0.181818,-0.545455 -0.02377,-0.118858 0.0294,-0.246043 0,-0.363636 -0.03287,-0.131473 -0.138963,-0.235072 -0.181818,-0.363637 -0.03833,-0.114992 0.08571,-0.277926 0,-0.363636 -0.04285,-0.04285 -0.121212,0 -0.181819,0 -0.121212,0 -0.25522,-0.05421 -0.363636,0 -0.05421,0.0271 0,0.121212 0,0.181818 0,0.06061 0,0.121212 0,0.181818 0,0.363637 0,0.727273 0,1.090909 0,0.121213 -0.0294,0.246044 0,0.363637 0.03287,0.131473 0.121212,0.242424 0.181818,0.363636 0.06061,0.121212 0.121212,0.242424 0.181818,0.363637 0.06061,0.121212 0.08599,0.267809 0.181819,0.363636 0.09583,0.09583 0.250877,0.106646 0.363636,0.181818 0.07707,0.05138 0.507841,0.470227 0.545455,0.545455 0.0271,0.05421 -0.04285,0.138963 0,0.181818 0.04285,0.04285 0.12761,-0.0271 0.181818,0 0.07666,0.03833 0.105157,0.143487 0.181818,0.181818 0.05421,0.0271 0.12761,-0.0271 0.181818,0 0.07666,0.03833 0.121212,0.121212 0.181818,0.181818 0.121212,0.121212 0.210314,0.286975 0.363637,0.363637 0.162623,0.08131 0.363636,0 0.545454,0 0.424243,0 0.848485,0 1.272727,0 0.07648,0 1.036823,0.02704 1.09091,0 0.298159,-0.14908 0.181818,-0.463536 0.181818,-0.727273 0,-0.363637 0,-0.727273 0,-1.090909 0,-0.121212 0.02377,-0.244778 0,-0.363637 -0.03759,-0.187931 -0.135336,-0.359523 -0.181818,-0.545454 -0.09091,-0.363637 0.181818,0 0,-0.545455 -0.0271,-0.08131 -0.143488,-0.105157 -0.181819,-0.181818 -0.05714,-0.114277 0.05714,-0.612996 0,-0.727273 -0.03833,-0.07666 -0.154714,-0.100506 -0.181818,-0.181818 -0.07666,-0.229984 0.0588,-0.492086 0,-0.727273 -0.06574,-0.262946 -0.2979,-0.464326 -0.363636,-0.727272 -0.0294,-0.117593 0.0294,-0.246044 0,-0.363637 C 33.785314,24.232163 33.669232,24.131473 33.636364,24 c -0.0294,-0.117593 0.05421,-0.255221 0,-0.363636 -0.0271,-0.05421 -0.138964,0.04285 -0.181819,0 -0.04286,-0.04285 0,-0.121212 0,-0.181819 0,-0.06061 -0.06061,-0.181818 0,-0.181818 0.06061,0 0,0.121212 0,0.181818 0,0.04321 -0.02038,0.686522 0,0.727273 0.03833,0.07666 0.105157,0.143488 0.181819,0.181818 0.08091,0.04046 0.948379,-0.02851 1.090909,0 1.494922,0.498308 -0.383307,-0.06388 1.090909,0.181819 0.189045,0.03151 0.356409,0.15031 0.545454,0.181818 0.179345,0.02989 0.363637,0 0.545455,0 0.363636,0 0.727273,0 1.090909,0 0.0441,0 0.539607,0.0058 0.545455,0 0.04398,-0.04398 -0.04831,-0.764147 0,-0.909091 0.04286,-0.128565 0.138963,-0.235072 0.181818,-0.363637 0.01917,-0.0575 -0.0271,-0.12761 0,-0.181818 0.03833,-0.07666 0.121212,-0.121212 0.181818,-0.181818 0.121212,-0.121212 0.256551,-0.22978 0.363636,-0.363636 0.901498,-1.126872 -0.02104,-0.05936 0.545455,-0.909091 0.168091,-0.252137 0.369322,-0.480687 0.545454,-0.727273 0.127012,-0.177816 0.227129,-0.37482 0.363637,-0.545454 0.107085,-0.133857 0.253896,-0.231948 0.363636,-0.363637 0.193995,-0.232794 0.33118,-0.512998 0.545455,-0.727273 0.154515,-0.154515 0.390938,-0.20912 0.545454,-0.363636 0.09583,-0.09583 0.100507,-0.255221 0.181818,-0.363636 0.0584,-0.07787 0.672155,-0.617037 0.727273,-0.727273 0.0271,-0.05421 -0.04286,-0.138963 0,-0.181818 0.249554,-0.249555 0.181818,0.320855 0.181818,0.363636 0,0.153937 0.03258,0.629526 0,0.727273 -0.0271,0.08131 -0.154714,0.100507 -0.181818,0.181818 -0.03546,0.106378 0,0.934849 0,1.090909 0,0.165159 -0.03934,1.154696 0,1.272727 0.0271,0.08131 0.143488,0.105157 0.181818,0.181819 0.03313,0.06627 0,0.804327 0,0.909091 0,0.666666 0,1.333333 0,2 0,0.363636 0,0.727272 0,1.090909 0,0.181818 0.08131,0.382831 0,0.545454 -0.0271,0.05421 -0.12761,-0.0271 -0.181818,0 -0.153322,0.07666 -0.210314,0.286975 -0.363636,0.363637 -0.05421,0.0271 -0.127611,-0.0271 -0.181818,0 -0.07666,0.03833 -0.105157,0.143487 -0.181819,0.181818 -0.02029,0.01015 -0.888797,0.01015 -0.909091,0 C 41.275631,26.637816 40.906187,26.089457 40.727273,26 40.555853,25.91429 40.335141,25.933174 40.181818,25.818182 40.073403,25.73687 40.112759,25.529718 40,25.454545 c -0.100855,-0.06724 -0.248644,0.03833 -0.363636,0 -0.03832,-0.01277 -0.512153,-0.495502 -0.545455,-0.545454 -0.07517,-0.112759 -0.08599,-0.26781 -0.181818,-0.363636 -0.04285,-0.04285 -0.138963,0.04285 -0.181818,0 -0.04285,-0.04285 0.04286,-0.138964 0,-0.181819 -0.04285,-0.04285 -0.181818,0.06061 -0.181818,0 0,-0.06061 0.121212,0 0.181818,0 0.242424,0 0.484848,0 0.727272,0 0.545455,0 1.09091,0 1.636364,0 0.121212,0 0.246043,-0.0294 0.363636,0 0.131473,0.03287 0.242425,0.121212 0.363637,0.181819 0.121212,0.06061 0.250877,0.106645 0.363636,0.181818 0.267541,0.17836 0.459732,0.548912 0.727273,0.727272 0.100854,0.06724 0.248644,-0.03833 0.363636,0 0.128565,0.04285 0.250878,0.106646 0.363637,0.181819 0.07131,0.04754 0.09867,0.16103 0.181818,0.181818 1.033999,0 0.119701,-0.08131 0.909091,0.181818 0.163636,0.05455 0.381818,-0.05455 0.545454,0 0.162623,0.05421 0.210314,0.286975 0.363637,0.363636 0.145454,0.07273 0.4,-0.07273 0.545454,0 0.07666,0.03833 0.121212,0.121212 0.181818,0.181819 0.121212,0 0.255221,-0.05421 0.363637,0 0.05421,0.0271 -0.04285,0.138963 0,0.181818 0.04286,0.04285 0.121212,0 0.181818,0 0.121212,0 0.2964,0.100854 0.363636,0 0.100855,-0.151282 0.02008,-0.364749 0,-0.545455 -0.04071,-0.366397 -0.121212,-0.727273 -0.181818,-1.090909"
       id="path3644"
       inkscape:connector-curvature="0" />
  </g>
</svg>
